 http://s14.postimage.org/gwz8m6sn5/and_brothers.png


D' Kilabots Pogi Brothers Weh! [2012] PPVRip EP


info:


Imdb                             : http://www.imdb.com/title/tt2543424/
Genres                           : Comedy
Director                         : Soxy Topacio
Writer                           : Phil Noble (story) 
Audio Language                   : Filipino | Tagalog
Country                          : Philippines



General
Complete name                            : D' Kilabots Pogi Brothers Weh! [2012] PPVRip EP.avi
Format                                   : AVI
Format/Info                              : Audio Video Interleave
File size                                : 1.81 GiB
Duration                                 : 1h 46mn
Overall bit rate                         : 2 438 Kbps
Writing library                          : VirtualDub build 32817/release

Video
ID                                       : 0
Format                                   : AVC
Format/Info                              : Advanced Video Codec
Format profile                           : High@L3.1
Format settings, CABAC                   : Yes
Format settings, ReFrames                : 3 frames
Codec ID                                 : H264
Duration                                 : 1h 46mn
Bit rate                                 : 2 237 Kbps
Width                                    : 1 280 pixels
Height                                   : 720 pixels
Display aspect ratio                     : 16:9
Frame rate                               : 25.000 fps
Color space                              : YUV
Chroma subsampling                       : 4:2:0
Bit depth                                : 8 bits
Scan type                                : Progressive
Bits/(Pixel*Frame)                       : 0.097
Stream size                              : 1.66 GiB (92%)
Writing library                          : x264 core 119 r2106kMod 07efeb4
Encoding settings                        : cabac=1 / ref=3 / deblock=1:0:0

Audio
ID                                       : 1
Format                                   : MPEG Audio
Format version                           : Version 1
Format profile                           : Layer 3
Codec ID                                 : 55
Codec ID/Hint                            : MP3
Duration                                 : 1h 46mn
Bit rate mode                            : Constant
Bit rate                                 : 192 Kbps
Channel(s)                               : 2 channels
Sampling rate                            : 44.1 KHz
Compression mode                         : Lossy
Stream size                              : 146 MiB (8%)
Alignment                                : Split accross interleaves
Interleave, duration                     : 40 ms (1.00 video frame)
Interleave, preload duration             : 500 ms
Writing library                          : LAMELAME_MAJOR_VERSI



cast:

Jose Manalo 	... 	Justine Kilabot
Wally Bayola 	... 	Bruno Kilabot
Gina Pareño 	... 	Sophia Kilabot
Pokwang 	... 	Kitty Kilabot
Solenn Heussaff 	... 	Lulu
Paolo Ballesteros 	... 	Tweety
Jimmy Santos 	... 	Jai-ho
Mosang 	... 	J Lo
Diego 	... 	Nge Ngo (as Diego Llorico)
Tirso Cruz III 	... 	Donald
Michael De Mesa 	... 	Mr. Lucio
Aljur Abrenica 	... 	Police Officer
Allan K. 	... 	Security Guard
Batas 	... 	Rapper
Dello 	... 	Rapper 



plot:

Two brothers become rivals in the affections of the same woman. Their rivalry tears them apart, 

and causes one of them to be heartbroken. But the two are forced to reunite in order to protect 

their family from a greedy businessman. 



Screenshot:
 
http://s14.postimage.org/k53pz8ewx/d_kilabot_sample.jpg